<svg width="45" height="40" viewBox="0 0 45 40" fill="none" xmlns="http://www.w3.org/2000/svg">
<path d="M9.28571 21.266C9.28571 19.0031 9.28571 17.8716 9.79543 16.8771C10.3051 15.8825 11.2624 15.1462 13.1769 13.6735L15.034 12.2449C18.4945 9.58302 20.2247 8.25208 22.2857 8.25208C24.3467 8.25208 26.0769 9.58302 29.5374 12.2449L31.3945 13.6735C33.309 15.1462 34.2663 15.8825 34.776 16.8771C35.2857 17.8716 35.2857 19.0031 35.2857 21.266V28.3334C35.2857 31.476 35.2857 33.0474 34.1978 34.0237C33.1099 35 31.359 35 27.8571 35H16.7143C13.2124 35 11.4615 35 10.3736 34.0237C9.28571 33.0474 9.28571 31.476 9.28571 28.3334V21.266Z" stroke="#FFB337" stroke-width="2"/>
<path d="M26.9286 35V26C26.9286 25.4477 26.4808 25 25.9286 25H18.6429C18.0906 25 17.6429 25.4477 17.6429 26V35" stroke="#FFB337" stroke-width="2" stroke-linecap="round" stroke-linejoin="round"/>
</svg>
